<?xml version="1.0" standalone="no"?>
<!DOCTYPE svg PUBLIC "-//W3C//DTD SVG 20010904//EN"
 "http://www.w3.org/TR/2001/REC-SVG-20010904/DTD/svg10.dtd">
<svg version="1.0" xmlns="http://www.w3.org/2000/svg"
 width="32.000000pt" height="32.000000pt" viewBox="0 0 32.000000 32.000000"
 preserveAspectRatio="xMidYMid meet">

<g transform="translate(0.000000,32.000000) scale(0.100000,-0.100000)"
fill="#000000" stroke="none">
<path d="M45 278 c-10 -23 3 -58 14 -40 6 10 30 13 81 11 69 -2 98 8 71 26 -6
3 -11 1 -11 -4 0 -7 -27 -11 -69 -11 -58 0 -70 3 -74 18 -4 16 -4 16 -12 0z"/>
<path d="M35 197 c-3 -12 -5 -54 -3 -92 l3 -70 93 -3 92 -3 0 96 0 95 -90 0
c-85 0 -90 -1 -95 -23z m175 -72 l0 -85 -80 0 -80 0 0 85 0 85 80 0 80 0 0
-85z"/>
<path d="M244 198 c-4 -7 -3 -8 4 -4 9 5 12 -14 12 -69 0 -48 -4 -74 -10 -70
-5 3 -10 2 -10 -4 0 -5 6 -11 13 -14 16 -5 37 3 37 15 0 5 -4 6 -10 3 -6 -4
-10 22 -10 70 0 55 3 74 12 69 7 -4 8 -3 4 4 -4 7 -13 12 -21 12 -8 0 -17 -5
-21 -12z"/>
</g>
</svg>
