<?xml version="1.0" standalone="no"?>
<!DOCTYPE svg PUBLIC "-//W3C//DTD SVG 20010904//EN"
 "http://www.w3.org/TR/2001/REC-SVG-20010904/DTD/svg10.dtd">
<svg version="1.0" xmlns="http://www.w3.org/2000/svg"
 width="512.000000pt" height="512.000000pt" viewBox="0 0 512.000000 512.000000"
 preserveAspectRatio="xMidYMid meet">

<g transform="translate(0.000000,512.000000) scale(0.100000,-0.100000)"
fill="#000000" stroke="none">
<path d="M1880 4594 c-386 -162 -662 -284 -672 -296 -16 -18 -18 -44 -18 -209
0 -176 1 -190 20 -209 11 -11 26 -20 34 -20 7 0 72 25 144 55 72 30 136 55
142 55 6 0 10 -53 10 -148 l0 -149 -757 -272 c-436 -156 -763 -278 -770 -288
-16 -21 -18 -385 -3 -414 15 -27 54 -24 149 10 l81 28 0 -1227 c0 -966 3
-1230 13 -1243 11 -16 152 -17 2307 -17 2155 0 2296 1 2307 17 10 13 13 277
13 1244 l0 1228 80 -30 c95 -34 135 -37 150 -10 15 29 13 393 -2 414 -8 10
-320 128 -758 285 -410 147 -751 271 -757 275 -17 11 -19 297 -2 297 6 0 70
-25 142 -55 71 -30 136 -55 143 -55 8 0 23 9 34 20 19 19 20 33 20 209 0 165
-2 191 -17 210 -21 25 -1316 571 -1353 571 -14 -1 -320 -125 -680 -276z m1306
-99 l629 -264 3 -111 c2 -80 -1 -110 -9 -110 -10 0 -505 205 -1075 446 -83 35
-161 64 -172 64 -16 0 -841 -340 -1185 -489 -74 -32 -77 -30 -76 42 0 34 4 84
7 112 l7 50 620 261 c341 144 620 262 621 263 1 1 284 -118 630 -264z m-167
-280 l451 -189 0 -1833 0 -1833 -300 0 -300 0 0 553 c0 484 -2 555 -16 575
-15 22 -17 22 -294 22 -277 0 -279 0 -294 -22 -14 -20 -16 -91 -16 -575 l0
-553 -300 0 -300 0 0 1833 0 1832 413 173 c226 95 430 181 452 192 22 10 43
18 46 17 4 -1 210 -87 458 -192z m-1479 -779 l0 -113 -407 -146 c-225 -81
-545 -196 -713 -256 l-305 -109 -3 110 c-1 61 1 114 5 118 4 4 192 73 418 154
226 81 538 193 695 250 157 57 291 104 298 105 9 1 12 -28 12 -113z m2755
-137 c385 -139 704 -255 708 -259 4 -4 6 -56 5 -117 l-3 -111 -265 95 c-342
123 -870 312 -1032 370 l-128 46 0 113 c0 63 3 114 7 114 4 0 322 -113 708
-251z m-2755 -1519 l0 -1420 -595 0 -595 0 0 1208 0 1209 588 211 c323 116
590 211 595 212 4 0 7 -639 7 -1420z m2649 1206 c315 -113 575 -206 577 -206
2 0 4 -544 4 -1210 l0 -1210 -595 0 -595 0 0 1421 c0 1349 1 1421 18 1416 9
-2 275 -97 591 -211z m-1429 -2106 l0 -520 -200 0 -200 0 0 520 0 520 200 0
200 0 0 -520z"/>
<path d="M2135 3789 c-132 -56 -248 -108 -257 -117 -17 -14 -18 -45 -18 -389
0 -360 1 -374 20 -393 19 -19 33 -20 269 -20 230 0 251 1 272 19 l24 19 0 477
c0 460 -1 477 -19 491 -11 8 -27 14 -35 14 -9 0 -124 -46 -256 -101z m195
-424 l0 -385 -177 2 -178 3 -3 306 -2 306 177 76 c98 41 179 76 181 76 1 1 2
-172 2 -384z"/>
<path d="M2694 3876 c-18 -14 -19 -31 -19 -491 l0 -477 24 -19 c21 -18 42 -19
272 -19 236 0 250 1 269 20 19 19 20 33 20 393 0 343 -1 375 -17 390 -20 17
-493 217 -515 217 -8 0 -23 -6 -34 -14z m384 -248 l72 -30 -2 -306 -3 -307
-177 -3 -178 -2 0 384 0 385 108 -45 c59 -25 140 -59 180 -76z"/>
<path d="M1877 2682 c-15 -17 -17 -60 -17 -410 l0 -391 22 -15 c19 -14 62 -16
274 -16 242 0 252 1 270 21 18 20 19 42 19 411 0 374 -1 390 -19 404 -16 11
-71 14 -276 14 -236 0 -258 -1 -273 -18z m453 -407 l0 -315 -180 0 -180 0 0
315 0 315 180 0 180 0 0 -315z"/>
<path d="M2694 2686 c-18 -14 -19 -30 -19 -404 0 -369 1 -391 19 -411 18 -20
28 -21 273 -21 240 0 254 1 273 20 19 19 20 33 20 408 0 364 -1 390 -18 405
-16 15 -50 17 -273 17 -205 0 -259 -3 -275 -14z m456 -411 l0 -315 -180 0
-180 0 0 315 0 315 180 0 180 0 0 -315z"/>
<path d="M915 2568 c-137 -49 -256 -95 -262 -100 -10 -8 -13 -125 -13 -524 0
-453 2 -514 16 -528 13 -14 54 -16 288 -16 252 0 274 1 289 18 15 17 17 74 17
611 0 389 -4 599 -10 612 -7 13 -21 19 -43 18 -18 0 -144 -41 -282 -91z m225
-548 l0 -510 -195 0 -195 0 0 439 0 439 43 16 c36 14 338 123 345 125 1 1 2
-228 2 -509z"/>
<path d="M3880 2641 c-6 -13 -10 -223 -10 -614 0 -563 1 -595 18 -610 16 -15
51 -17 290 -17 233 0 273 2 286 16 14 14 16 72 14 532 l-3 517 -26 12 c-65 31
-505 183 -530 183 -18 0 -32 -7 -39 -19z m420 -226 l65 -22 3 -441 2 -442
-195 0 -195 0 0 510 0 509 128 -46 c70 -25 156 -55 192 -68z"/>
</g>
</svg>
