<svg width="96" height="28" viewBox="0 0 96 28" fill="none" xmlns="http://www.w3.org/2000/svg">
<g clip-path="url(#clip0_175_16681)">
<path d="M88.115 1.2044e-06H8.67029C8.3807 1.2044e-06 8.09454 1.20427e-06 7.80572 0.0014012C7.56397 0.0028012 7.32413 0.0068682 7.08004 0.0102912C6.54976 0.0158225 6.02072 0.0571746 5.49754 0.133988C4.97509 0.212474 4.469 0.360442 3.99639 0.572888C3.52436 0.78713 3.09306 1.06552 2.71812 1.39795C2.34122 1.72945 2.02705 2.11262 1.78768 2.53271C1.54764 2.95198 1.3812 3.40126 1.2941 3.86504C1.20618 4.32823 1.15887 4.79677 1.15259 5.26644C1.14526 5.48106 1.14449 5.69639 1.14062 5.91104V22.091C1.14449 22.3084 1.14526 22.5189 1.15259 22.7363C1.15887 23.206 1.20618 23.6745 1.2941 24.1377C1.38096 24.6018 1.54741 25.0513 1.78768 25.4707C2.02694 25.8894 2.34116 26.271 2.71812 26.6007C3.09164 26.9346 3.52322 27.2132 3.99639 27.4258C4.46899 27.6388 4.97503 27.7877 5.49754 27.8673C6.02082 27.9436 6.54979 27.9849 7.08004 27.9911C7.32413 27.9958 7.56397 27.9986 7.80572 27.9986C8.09454 28 8.3807 28 8.67029 28H88.115C88.3992 28 88.6876 28 88.9711 27.9986C89.2119 27.9986 89.459 27.9958 89.6991 27.9911C90.2283 27.9853 90.7568 27.9439 91.279 27.8673C91.8026 27.7871 92.3108 27.6383 92.7854 27.4258C93.2586 27.213 93.6898 26.9345 94.0629 26.6007C94.4388 26.2698 94.7538 25.8884 94.996 25.4707C95.234 25.0509 95.3992 24.6015 95.4846 24.1377C95.5728 23.6745 95.6218 23.206 95.6316 22.7363C95.6344 22.5189 95.6344 22.3084 95.6344 22.091C95.6407 21.8367 95.6407 21.5838 95.6407 21.3253V6.67529C95.6407 6.41894 95.6407 6.16465 95.6344 5.91104C95.6344 5.69639 95.6344 5.48106 95.6316 5.26641C95.6218 4.7967 95.5728 4.32827 95.4846 3.86501C95.3992 3.4015 95.234 2.95225 94.996 2.53269C94.5081 1.69064 93.7353 1.00522 92.7854 0.572825C92.3108 0.360898 91.8026 0.212969 91.279 0.133925C90.7568 0.0567732 90.2283 0.0154067 89.6991 0.0101932C89.459 0.0067772 89.2119 0.0026752 88.9711 0.0013102C88.6876 -8.97956e-05 88.3992 1.2044e-06 88.115 1.2044e-06Z" fill="#A6A6A6"/>
<path d="M7.80862 27.3883C7.56804 27.3883 7.33324 27.3856 7.09452 27.3808C6.59999 27.3751 6.10661 27.3369 5.61844 27.2666C5.16324 27.1971 4.72228 27.0679 4.31009 26.8831C3.90169 26.6998 3.52919 26.4596 3.20687 26.1715C2.87988 25.8868 2.60765 25.5565 2.40096 25.1939C2.192 24.8289 2.04738 24.4377 1.97215 24.0339C1.8909 23.6 1.84695 23.1612 1.84066 22.7214C1.83565 22.5738 1.8291 22.0822 1.8291 22.0822V5.91182C1.8291 5.91182 1.83608 5.42783 1.8407 5.28564C1.84672 4.84652 1.89042 4.40844 1.97142 3.97519C2.04679 3.57026 2.19152 3.17791 2.4006 2.81172C2.60652 2.44934 2.87725 2.11888 3.20226 1.83316C3.52692 1.54472 3.9006 1.3032 4.30971 1.11743C4.72094 0.933244 5.16107 0.804892 5.61535 0.73667C6.10513 0.665666 6.60022 0.627278 7.09646 0.621828L7.80904 0.613281H88.9666L89.6876 0.622171C90.179 0.627351 90.6697 0.665396 91.1548 0.735984C91.614 0.805067 92.0585 0.934315 92.475 1.11948C93.294 1.49387 93.9611 2.08619 94.3818 2.81343C94.5876 3.17709 94.7297 3.56624 94.8046 3.96767C94.8865 4.40447 94.932 4.846 94.9418 5.28872C94.9439 5.48696 94.9439 5.6999 94.9439 5.91182C94.9502 6.17432 94.9502 6.42417 94.9502 6.67607V21.3261C94.9502 21.5805 94.9502 21.8286 94.9439 22.0788C94.9439 22.3064 94.9439 22.515 94.9411 22.7296C94.932 23.1644 94.8865 23.5981 94.806 24.027C94.7325 24.4338 94.5883 24.828 94.3797 25.196C94.1711 25.5547 93.9009 25.8821 93.5775 26.166C93.2548 26.4557 92.8817 26.6973 92.4722 26.8818C92.0578 27.068 91.6133 27.1977 91.1548 27.2666C90.6669 27.3373 90.1734 27.3755 89.6792 27.3808C89.4475 27.3856 89.2053 27.3883 88.9701 27.3883L88.114 27.3897L7.80862 27.3883Z" fill="black"/>
<path d="M18.4782 14.2107C18.4858 13.6264 18.641 13.0535 18.9294 12.5454C19.2178 12.0372 19.6301 11.6102 20.1278 11.3042C19.8116 10.8526 19.3945 10.4809 18.9095 10.2188C18.4245 9.95655 17.885 9.81109 17.334 9.7938C16.1586 9.67046 15.019 10.4972 14.42 10.4972C13.8094 10.4972 12.8871 9.80605 11.894 9.82649C11.2516 9.84728 10.6256 10.034 10.0769 10.3687C9.52816 10.7033 9.07554 11.1744 8.76299 11.736C7.40919 14.0799 8.41901 17.5247 9.71583 19.4193C10.3647 20.347 11.123 21.3833 12.1152 21.3466C13.0861 21.3063 13.4487 20.7274 14.6207 20.7274C15.7819 20.7274 16.1221 21.3466 17.1344 21.3232C18.1763 21.3063 18.8328 20.3914 19.4588 19.4548C19.925 18.7938 20.2837 18.0632 20.5217 17.29C19.9164 17.034 19.3998 16.6055 19.0365 16.0579C18.6731 15.5103 18.4789 14.8678 18.4782 14.2107Z" fill="white"/>
<path d="M16.5655 8.54498C17.1336 7.86304 17.4135 6.98653 17.3457 6.10156C16.4778 6.19272 15.6762 6.60751 15.1004 7.26328C14.8189 7.58367 14.6033 7.95635 14.4659 8.36011C14.3286 8.76387 14.2721 9.19073 14.2998 9.61626C14.7339 9.62074 15.1633 9.52666 15.5558 9.34109C15.9483 9.15552 16.2935 8.88336 16.5655 8.54498Z" fill="white"/>
<path d="M30.7518 18.9994H27.4384L26.6427 21.3489H25.2393L28.3776 12.6562H29.8357L32.9741 21.3489H31.5467L30.7518 18.9994ZM27.7815 17.9151H30.4079L29.1132 14.1021H29.0769L27.7815 17.9151Z" fill="white"/>
<path d="M39.752 18.1819C39.752 20.1514 38.698 21.4167 37.1072 21.4167C36.7043 21.4378 36.3036 21.345 35.9509 21.1489C35.5982 20.9528 35.3079 20.6613 35.1132 20.3079H35.0831V23.447H33.7822V15.0128H35.0414V16.0669H35.0653C35.269 15.7151 35.5642 15.4253 35.9195 15.2279C36.2749 15.0307 36.6771 14.9334 37.0833 14.9465C38.6917 14.9465 39.752 16.218 39.752 18.1819ZM38.415 18.1819C38.415 16.8988 37.7519 16.0553 36.7401 16.0553C35.7462 16.0553 35.0776 16.9166 35.0776 18.1819C35.0776 19.4589 35.7462 20.3141 36.7401 20.3141C37.7519 20.3141 38.415 19.4767 38.415 18.1819Z" fill="white"/>
<path d="M46.7277 18.1819C46.7277 20.1514 45.6736 21.4167 44.0829 21.4167C43.6799 21.4378 43.2791 21.345 42.9265 21.1488C42.5738 20.9528 42.2835 20.6613 42.0888 20.3079H42.0587V23.447H40.7578V15.0128H42.017V16.0669H42.0409C42.2446 15.7151 42.5398 15.4252 42.8951 15.2279C43.2505 15.0307 43.6527 14.9334 44.0589 14.9465C45.6674 14.9465 46.7277 16.218 46.7277 18.1819ZM45.3906 18.1819C45.3906 16.8988 44.7275 16.0553 43.7157 16.0553C42.7218 16.0553 42.0532 16.9166 42.0532 18.1819C42.0532 19.4589 42.7218 20.3141 43.7157 20.3141C44.7275 20.3141 45.3906 19.4767 45.3906 18.1819Z" fill="white"/>
<path d="M51.3375 18.9234C51.4339 19.7854 52.2713 20.3514 53.4157 20.3514C54.5122 20.3514 55.301 19.7854 55.301 19.0081C55.301 18.3334 54.8252 17.9294 53.6987 17.6525L52.5721 17.3811C50.9759 16.9956 50.2349 16.2491 50.2349 15.0378C50.2349 13.538 51.5419 12.5078 53.3979 12.5078C55.2347 12.5078 56.4939 13.538 56.5363 15.0378H55.2231C55.1445 14.1703 54.4274 13.6466 53.3794 13.6466C52.3315 13.6466 51.6144 14.1765 51.6144 14.9475C51.6144 15.5621 52.0724 15.9237 53.1928 16.2005L54.1505 16.4357C55.934 16.8575 56.675 17.5739 56.675 18.8454C56.675 20.4716 55.3796 21.4902 53.3192 21.4902C51.3915 21.4902 50.09 20.4956 50.0059 18.9233L51.3375 18.9234Z" fill="white"/>
<path d="M59.4824 13.5117V15.0115H60.6876V16.0417H59.4824V19.5356C59.4824 20.0783 59.7238 20.3313 60.2535 20.3313C60.3966 20.3287 60.5394 20.3187 60.6815 20.3012V21.3252C60.4432 21.3696 60.2012 21.3898 59.9589 21.3853C58.6758 21.3853 58.1754 20.9034 58.1754 19.6743V16.0417H57.2539V15.0115H58.1754V13.5117H59.4824Z" fill="white"/>
<path d="M61.3857 18.1807C61.3857 16.1867 62.5601 14.9336 64.3915 14.9336C66.229 14.9336 67.3979 16.1866 67.3979 18.1807C67.3979 20.1802 66.2351 21.4278 64.3915 21.4278C62.5485 21.4278 61.3857 20.1802 61.3857 18.1807ZM66.0725 18.1807C66.0725 16.8128 65.4456 16.0055 64.3915 16.0055C63.3374 16.0055 62.7112 16.819 62.7112 18.1807C62.7112 19.554 63.3374 20.3552 64.3915 20.3552C65.4456 20.3552 66.0725 19.554 66.0725 18.1807Z" fill="white"/>
<path d="M68.4707 15.0128H69.7114V16.0915H69.7415C69.8255 15.7546 70.0228 15.4568 70.3004 15.2483C70.5781 15.0398 70.9187 14.9332 71.2659 14.9464C71.4157 14.9459 71.5655 14.9622 71.7118 14.995V16.2117C71.5221 16.1539 71.3247 16.1274 71.1273 16.1331C70.9383 16.1255 70.7498 16.1588 70.5748 16.2308C70.4 16.3029 70.2428 16.4119 70.114 16.5504C69.9852 16.6889 69.8879 16.8536 69.8288 17.0333C69.7697 17.213 69.7502 17.4033 69.7716 17.5912V21.3504H68.4707V15.0128Z" fill="white"/>
<path d="M77.7091 19.4877C77.5341 20.6382 76.4141 21.4278 74.9805 21.4278C73.1367 21.4278 71.9922 20.1925 71.9922 18.2108C71.9922 16.2229 73.143 14.9336 74.9259 14.9336C76.6787 14.9336 77.7819 16.1381 77.7819 18.0597V18.5054H73.3054V18.584C73.2851 18.8173 73.3138 19.0522 73.3908 19.2733C73.4685 19.4944 73.5917 19.6965 73.7527 19.8664C73.9137 20.0361 74.1097 20.1697 74.3267 20.2581C74.543 20.3465 74.7761 20.3877 75.0106 20.3791C75.3179 20.4079 75.6266 20.3368 75.8898 20.1761C76.1537 20.0155 76.3588 19.7741 76.4736 19.4877H77.7091ZM73.3117 17.5962H76.4799C76.4918 17.3865 76.4603 17.1766 76.3868 16.9798C76.3133 16.7829 76.1999 16.6034 76.0543 16.4523C75.908 16.3013 75.733 16.182 75.5384 16.1021C75.3445 16.0222 75.1359 15.9832 74.9259 15.9877C74.7138 15.9865 74.5038 16.0271 74.3078 16.1075C74.1118 16.1878 73.9333 16.3062 73.7835 16.4557C73.6337 16.6052 73.5147 16.783 73.4335 16.9788C73.3523 17.1745 73.311 17.3844 73.3117 17.5962Z" fill="white"/>
<path d="M28.3187 10.2126V8.22127C28.3278 7.99496 28.2527 7.7732 28.1082 7.5989C28.0305 7.51525 27.9352 7.45008 27.829 7.40801C27.723 7.36601 27.6088 7.34816 27.495 7.35586C27.3539 7.34816 27.2131 7.37427 27.0842 7.43202C26.9554 7.48977 26.8421 7.57741 26.754 7.68773C26.567 7.95184 26.475 8.27146 26.4929 8.59451C26.4883 8.77609 26.5125 8.95718 26.5646 9.13113C26.6027 9.25839 26.6649 9.37704 26.7478 9.48078C26.815 9.56373 26.9017 9.62883 27.0001 9.67013C27.0874 9.70667 27.181 9.72585 27.2755 9.72655C27.349 9.72697 27.4223 9.72207 27.495 9.71185C27.5646 9.70107 27.6324 9.68007 27.696 9.64962L27.8149 10.1295C27.7335 10.1715 27.6468 10.2023 27.5572 10.2215C27.4491 10.2442 27.3388 10.2551 27.2284 10.2539C27.0518 10.2543 26.8766 10.2211 26.7123 10.1562C26.5443 10.0899 26.3934 9.9866 26.2707 9.85402C26.1343 9.70415 26.0305 9.52761 25.9658 9.33553C25.886 9.09683 25.8478 8.84616 25.853 8.59451C25.8512 8.35847 25.8863 8.12355 25.9569 7.89829C26.0206 7.69256 26.1254 7.50195 26.2652 7.33808C26.4052 7.17743 26.5792 7.04996 26.7745 6.96484C26.9965 6.87024 27.2359 6.82376 27.4771 6.82845C27.6975 6.8242 27.9166 6.86142 28.1232 6.93817C28.2975 7.00411 28.4559 7.10617 28.588 7.23756C28.7122 7.36363 28.8074 7.51525 28.8669 7.68192C28.9287 7.85699 28.9597 8.04144 28.9586 8.22708V10.2126H28.3187Z" fill="white"/>
<path d="M31.2346 10.2113V8.07776C31.2346 7.59581 31.0272 7.35473 30.6125 7.35452C30.4327 7.35424 30.2545 7.38847 30.0875 7.45532C29.9313 7.51636 29.783 7.59602 29.6459 7.69255L29.4805 7.22425C29.6427 7.10875 29.82 7.016 30.0075 6.94877C30.2195 6.86797 30.4444 6.82673 30.6713 6.82709C30.8365 6.81539 31.0023 6.83954 31.1574 6.89789C31.3124 6.95623 31.453 7.04743 31.5695 7.1651C31.7856 7.42753 31.8945 7.76199 31.8744 8.10128V10.2112L31.2346 10.2113Z" fill="white"/>
<path d="M32.7092 9.4584C32.8506 9.54296 33.0004 9.61254 33.1563 9.66588C33.3193 9.72181 33.4905 9.74988 33.6628 9.74897C33.7921 9.75555 33.9212 9.73231 34.0399 9.68086C34.1587 9.62948 34.2641 9.55136 34.3478 9.45259C34.5298 9.19352 34.6165 8.87943 34.5932 8.56359C34.6202 8.23823 34.5334 7.9135 34.3478 7.64484C34.2631 7.54768 34.1575 7.47103 34.0388 7.4207C33.9201 7.37037 33.7915 7.34769 33.6628 7.35434C33.4895 7.35168 33.3171 7.37982 33.1535 7.43743C32.9951 7.497 32.8439 7.57449 32.7031 7.6685L32.5547 7.17661C32.7253 7.07007 32.9085 6.98546 33.1002 6.92474C33.3012 6.85972 33.5111 6.82673 33.7223 6.82698C33.9303 6.81396 34.1386 6.84706 34.3323 6.92393C34.526 7.00084 34.7003 7.11956 34.8427 7.27167C35.1227 7.62601 35.2619 8.07121 35.2337 8.52194C35.2689 8.99465 35.1249 9.4633 34.8304 9.83479C34.6837 9.98592 34.5062 10.1037 34.3099 10.1799C34.1136 10.2561 33.9031 10.289 33.6929 10.2764C33.2928 10.2928 32.8974 10.1851 32.5608 9.96807L32.7092 9.4584Z" fill="white"/>
<path d="M36.6449 9.04C36.6267 9.2346 36.6818 9.42899 36.7994 9.58516C36.8613 9.64424 36.935 9.6896 37.0157 9.71823C37.0964 9.74686 37.1823 9.75813 37.2676 9.75127C37.4565 9.75008 37.6401 9.68876 37.7919 9.57627C37.949 9.46763 38.0748 9.31944 38.1562 9.14661V6.89453H38.7961V10.2134H38.2157L38.1562 9.76905C38.0446 9.91521 37.9043 10.0372 37.7441 10.1276C37.551 10.2335 37.3332 10.2857 37.1131 10.2787C36.9622 10.2889 36.8109 10.2673 36.669 10.2152C36.5271 10.1631 36.3977 10.0817 36.2893 9.97618C36.0807 9.71767 35.9789 9.38902 36.005 9.05778V6.89453H36.6449V9.04Z" fill="white"/>
<path d="M38.6362 6.06267C38.5798 6.05928 38.5241 6.07613 38.479 6.11018C38.4585 6.13107 38.4428 6.15624 38.4331 6.18389C38.4234 6.21154 38.4199 6.24099 38.4229 6.27014V6.45403H37.7646V6.18125C37.7597 6.09414 37.7736 6.007 37.8053 5.92573C37.837 5.84446 37.8859 5.77098 37.9485 5.71025C38.1004 5.58748 38.2931 5.527 38.4879 5.54106H39.1578V6.06267H38.6362Z" fill="white"/>
<path d="M40.0114 10.2139V6.61646C40.0145 6.46494 39.9895 6.31416 39.9376 6.17178C39.8938 6.0563 39.8339 5.94756 39.7599 5.84878C39.6986 5.76822 39.6267 5.69646 39.5459 5.6355C39.4885 5.59128 39.4258 5.55442 39.3593 5.52578L39.3477 5.37197C39.4823 5.14697 39.68 4.96653 39.9164 4.85312C40.1876 4.72076 40.4863 4.6548 40.788 4.66069C40.9908 4.65675 41.1933 4.67462 41.3923 4.71401C41.5396 4.74635 41.6843 4.78988 41.825 4.84421L41.7245 5.37776C41.588 5.30751 41.4423 5.25666 41.2918 5.22668C41.1394 5.19679 40.9843 5.1819 40.829 5.18225C40.6621 5.17867 40.4959 5.20376 40.3375 5.25645C40.2183 5.29353 40.1103 5.35965 40.023 5.44888C40.2225 5.56124 40.3852 5.72899 40.4913 5.93183C40.6065 6.15834 40.6636 6.40993 40.6574 6.66396V10.2139H40.0114Z" fill="white"/>
<path d="M43.9342 10.2134L43.4844 8.75531C43.3771 8.41966 43.1894 8.24781 42.9211 8.23983L42.2635 8.79696V10.2134H41.623V6.89453H42.2635V8.10928L43.7209 6.89455H44.5508L43.3655 7.87247C43.5504 7.90411 43.7188 7.99819 43.8426 8.13903C43.9621 8.28631 44.0518 8.4555 44.1065 8.63701L44.6042 10.2134H43.9342Z" fill="white"/>
<path d="M47.2474 10.2112V8.68814H46.4704C46.2643 8.67848 46.0592 8.72237 45.875 8.81561C45.8013 8.85908 45.7413 8.92243 45.702 8.99845C45.6627 9.07447 45.6457 9.16001 45.6529 9.24527C45.6478 9.31723 45.6593 9.3894 45.6866 9.45625C45.7138 9.52303 45.7561 9.58267 45.8101 9.63048C45.9177 9.7184 46.0534 9.7646 46.1922 9.76068C46.2749 9.76026 46.3574 9.7513 46.4383 9.73401C46.5206 9.71707 46.601 9.69222 46.6786 9.65981L46.7791 10.152C46.5716 10.2342 46.3497 10.2744 46.1266 10.2703C45.9801 10.2715 45.8342 10.2505 45.6939 10.2081C45.5655 10.1699 45.4465 10.1053 45.3445 10.0184C45.2434 9.93071 45.1632 9.82137 45.1101 9.69845C45.0506 9.55691 45.0215 9.40452 45.0246 9.25108C45.0246 8.5319 45.5264 8.17238 46.5299 8.17238H47.2474V8.07767C47.2574 7.88293 47.1962 7.6912 47.0751 7.53832C46.9989 7.46433 46.9074 7.40791 46.8071 7.37305C46.7067 7.33819 46.6 7.3258 46.4944 7.33665C46.2773 7.33322 46.0613 7.36934 45.8572 7.44333C45.6787 7.50983 45.5086 7.5974 45.3507 7.70408L45.1429 7.25979C45.2238 7.20239 45.308 7.14989 45.3952 7.10257C45.4983 7.0465 45.6063 6.99995 45.7178 6.96343C45.8429 6.92241 45.9706 6.88976 46.0999 6.86568C46.2417 6.8395 46.3857 6.82657 46.5299 6.82705C46.8945 6.80373 47.2535 6.9252 47.529 7.16508C47.648 7.28303 47.7409 7.42471 47.8017 7.58081C47.8624 7.73698 47.8897 7.90414 47.8817 8.07151V10.2112H47.2474Z" fill="white"/>
<path d="M51.1166 10.2126V8.22127C51.1256 7.99489 51.0507 7.7732 50.906 7.59883C50.8283 7.51525 50.733 7.45008 50.6269 7.40801C50.5208 7.36601 50.4067 7.34816 50.2928 7.35586C50.1518 7.34816 50.011 7.37427 49.8821 7.43202C49.7532 7.4897 49.64 7.57741 49.5518 7.68773C49.3649 7.95184 49.2729 8.27146 49.2907 8.59451C49.2862 8.77602 49.3105 8.95718 49.3625 9.13113C49.4006 9.25832 49.4628 9.37704 49.5457 9.48078C49.6129 9.56373 49.6995 9.62876 49.7979 9.67013C49.8852 9.70667 49.9788 9.72585 50.0734 9.72655C50.1468 9.72697 50.2202 9.72207 50.2928 9.71185C50.3626 9.70107 50.4303 9.68007 50.4938 9.64962L50.6128 10.1295C50.5313 10.1714 50.4447 10.2023 50.3551 10.2215C50.247 10.2442 50.1367 10.2551 50.0263 10.2539C49.8496 10.2543 49.6745 10.2211 49.5102 10.1562C49.3422 10.0899 49.1913 9.9866 49.0685 9.85402C48.9322 9.70415 48.8283 9.52761 48.7637 9.33553C48.6838 9.09683 48.6457 8.84616 48.6509 8.59451C48.649 8.35847 48.6841 8.12355 48.7548 7.89829C48.8184 7.69256 48.9234 7.50195 49.0631 7.33808C49.2031 7.17743 49.377 7.04996 49.5723 6.96483C49.7943 6.87022 50.0338 6.82374 50.2751 6.82845C50.4954 6.8242 50.7145 6.86142 50.9211 6.93817C51.0954 7.00411 51.2538 7.10617 51.386 7.23756C51.5101 7.36363 51.6053 7.51525 51.6648 7.68192C51.7267 7.85699 51.7577 8.04144 51.7565 8.22708V10.2126H51.1166Z" fill="white"/>
<path d="M52.847 10.2124V6.34224C52.8413 6.12117 52.8848 5.9016 52.9741 5.69932C53.0552 5.52438 53.1836 5.37556 53.3447 5.26968H52.041V4.75391H54.0741V5.21021C53.8882 5.28993 53.7347 5.42981 53.638 5.60737C53.5359 5.80922 53.4861 6.03344 53.4931 6.25952V10.2124H52.847Z" fill="white"/>
<path d="M56.765 10.2126V8.22127C56.7741 7.99489 56.699 7.7732 56.5544 7.59883C56.4768 7.51525 56.3814 7.45008 56.2753 7.40801C56.1692 7.36601 56.0551 7.34816 55.9412 7.35586C55.8002 7.34816 55.6594 7.37427 55.5305 7.43202C55.4017 7.4897 55.2884 7.57741 55.2003 7.68773C55.0133 7.95184 54.9213 8.27146 54.9392 8.59451C54.9346 8.77602 54.9588 8.95718 55.0109 9.13113C55.049 9.25832 55.1112 9.37704 55.1941 9.48078C55.2613 9.56373 55.348 9.62876 55.4464 9.67013C55.5337 9.70667 55.6272 9.72585 55.7218 9.72655C55.7953 9.72697 55.8685 9.72207 55.9413 9.71185C56.0109 9.70107 56.0787 9.68007 56.1423 9.64962L56.2612 10.1295C56.1798 10.1714 56.0931 10.2023 56.0035 10.2215C55.8954 10.2442 55.7851 10.2551 55.6747 10.2539C55.498 10.2543 55.3229 10.2211 55.1585 10.1562C54.9906 10.0899 54.8397 9.9866 54.717 9.85402C54.5805 9.70415 54.4767 9.52761 54.4121 9.33553C54.3323 9.09683 54.2941 8.84616 54.2993 8.59451C54.2975 8.35847 54.3325 8.12355 54.4032 7.89829C54.4669 7.69256 54.5717 7.50195 54.7115 7.33808C54.8515 7.17743 55.0254 7.04996 55.2208 6.96483C55.4427 6.87022 55.6823 6.82374 55.9235 6.82845C56.1438 6.8242 56.363 6.86142 56.5695 6.93817C56.7438 7.00411 56.9022 7.10617 57.0343 7.23756C57.1585 7.36363 57.2537 7.51525 57.3133 7.68192C57.3751 7.85699 57.4061 8.04144 57.4048 8.22708V10.2126H56.765Z" fill="white"/>
<path d="M56.8486 5.86318C56.8468 5.87607 56.848 5.88922 56.8521 5.90157C56.8563 5.91392 56.8632 5.92514 56.8724 5.93434C56.8817 5.94353 56.8929 5.95044 56.9053 5.95452C56.9177 5.9586 56.9308 5.95975 56.9437 5.95786H57.7373V6.45586H56.623C56.5511 6.4567 56.481 6.43253 56.4248 6.38748C56.3953 6.36262 56.3722 6.33114 56.3572 6.29561C56.3423 6.26009 56.3359 6.22152 56.3387 6.18308V6.02314C56.3411 5.99627 56.3349 5.96932 56.3209 5.94624C56.3106 5.93678 56.2984 5.92972 56.285 5.92558C56.2716 5.92144 56.2576 5.92033 56.2437 5.92232H55.9121V5.40688H56.4754C56.5721 5.40169 56.6678 5.42873 56.7475 5.48378C56.7822 5.51224 56.8096 5.54867 56.8272 5.58997C56.8448 5.63127 56.8521 5.67622 56.8486 5.72099V5.86318Z" fill="white"/>
<path d="M60.6059 8.08012C60.6209 7.88783 60.5742 7.69575 60.4727 7.53188C60.4279 7.47392 60.3698 7.42765 60.3032 7.3972C60.2366 7.36668 60.1636 7.35289 60.0905 7.35688C59.88 7.35611 59.6737 7.4147 59.4951 7.52607C59.3172 7.63296 59.1629 7.77506 59.0419 7.94369V10.2136H58.4014V6.89475H58.9824L59.0419 7.34526C59.11 7.27764 59.1832 7.2152 59.2607 7.15864C59.3452 7.09655 59.4344 7.04104 59.5272 6.9925C59.6255 6.94196 59.7288 6.9022 59.8356 6.8739C59.9517 6.84371 60.0711 6.82877 60.1911 6.82947C60.337 6.82175 60.4827 6.84738 60.6173 6.90441C60.7519 6.96144 60.8717 7.04839 60.9676 7.15864C61.1662 7.41652 61.2653 7.73733 61.2465 8.06234V10.2136H60.606L60.6059 8.08012Z" fill="white"/>
<path d="M58.7158 6.45523V5.95723H60.7488V5.40625H61.3292V6.45523H58.7158Z" fill="white"/>
<path d="M60.8369 5.1055V4.22266H61.4173V5.1055H60.8369Z" fill="white"/>
</g>
<defs>
<clipPath id="clip0_175_16681">
<rect width="95.2" height="28" fill="white" transform="translate(0.799805)"/>
</clipPath>
</defs>
</svg>
