<svg width="96" height="28" viewBox="0 0 96 28" fill="none" xmlns="http://www.w3.org/2000/svg">
<g clip-path="url(#clip0_175_16774)">
<mask id="mask0_175_16774" style="mask-type:luminance" maskUnits="userSpaceOnUse" x="0" y="0" width="96" height="28">
<path d="M95.041 0H0.541016V28H95.041V0Z" fill="white"/>
</mask>
<g mask="url(#mask0_175_16774)">
<path d="M91.5411 0H4.04102C2.10802 0 0.541016 1.56701 0.541016 3.5V24.5C0.541016 26.433 2.10802 28 4.04102 28H91.5411C93.4738 28 95.0411 26.433 95.0411 24.5V3.5C95.0411 1.56701 93.4738 0 91.5411 0Z" fill="black"/>
<path d="M91.5411 0.56C93.1511 0.56 94.4811 1.89 94.4811 3.5V24.5C94.4811 26.11 93.1511 27.44 91.5411 27.44H4.04102C2.43102 27.44 1.10102 26.11 1.10102 24.5V3.5C1.10102 1.89 2.43102 0.56 4.04102 0.56H91.5411ZM91.5411 0H4.04102C2.08102 0 0.541016 1.61 0.541016 3.5V24.5C0.541016 26.46 2.08102 28 4.04102 28H91.5411C93.4311 28 95.0411 26.46 95.0411 24.5V3.5C95.0411 1.61 93.4311 0 91.5411 0Z" fill="#A6A6A6"/>
<path d="M48.2105 15.2627C46.5305 15.2627 45.2005 16.5227 45.2005 18.2727C45.2005 20.0227 46.5305 21.2827 48.2105 21.2827C49.8905 21.2827 51.2205 20.0227 51.2205 18.2727C51.2205 16.5227 49.8905 15.2627 48.2105 15.2627ZM48.2105 20.0227C47.3005 20.0227 46.5305 19.2527 46.5305 18.2027C46.5305 17.1527 47.3005 16.3827 48.2105 16.3827C49.1205 16.3827 49.8905 17.0827 49.8905 18.2027C49.8905 19.3227 49.1205 20.0227 48.2105 20.0227ZM41.7005 15.2627C40.0205 15.2627 38.6905 16.5227 38.6905 18.2727C38.6905 20.0227 40.0205 21.2827 41.7005 21.2827C43.3805 21.2827 44.7105 20.0227 44.7105 18.2727C44.7105 16.5227 43.3805 15.2627 41.7005 15.2627ZM41.7005 20.0227C40.7905 20.0227 40.0205 19.2527 40.0205 18.2027C40.0205 17.1527 40.7905 16.3827 41.7005 16.3827C42.6105 16.3827 43.3805 17.0827 43.3805 18.2027C43.3805 19.3227 42.6105 20.0227 41.7005 20.0227ZM33.9305 16.1727V17.4327H36.9405C36.8705 18.1327 36.5905 18.6927 36.2405 19.0427C35.8905 19.3927 35.1205 19.9527 33.9305 19.9527C32.0405 19.9527 30.6405 18.4827 30.6405 16.5927C30.6405 14.7027 32.1105 13.2327 33.9305 13.2327C35.7505 13.2327 35.6805 13.6527 36.2405 14.1427L37.1505 13.2327C36.3805 12.5327 35.4005 11.9727 34.0005 11.9727C31.4805 11.9727 29.3105 14.0727 29.3105 16.5927C29.3105 19.1127 31.4805 21.2127 34.0005 21.2127C36.5205 21.2127 36.3805 20.7927 37.2205 19.8827C38.0605 19.0427 38.3405 17.8527 38.3405 16.9427C38.3405 16.0327 38.3405 16.3827 38.3405 16.1727H34.0705H33.9305ZM65.7105 17.1527C65.4305 16.4527 64.7305 15.2627 63.1905 15.2627C61.6505 15.2627 60.3905 16.4527 60.3905 18.2727C60.3905 20.0927 61.6505 21.2827 63.3305 21.2827C65.0105 21.2827 65.5005 20.4427 65.7805 19.9527L64.8005 19.2527C64.4505 19.7427 64.0305 20.0927 63.3305 20.0927C62.6305 20.0927 62.2105 19.8127 61.8605 19.1827L65.8505 17.5027L65.7105 17.1527ZM61.6505 18.1327C61.6505 17.0127 62.5605 16.3827 63.1905 16.3827C63.8205 16.3827 64.1705 16.6627 64.3105 17.0127L61.6505 18.1327ZM58.3605 21.0027H59.6905V12.2527H58.3605V21.0027ZM56.2605 15.8927C55.9805 15.5427 55.4205 15.1927 54.7205 15.1927C53.2505 15.1927 51.8505 16.5227 51.8505 18.2027C51.8505 19.8827 53.1805 21.1427 54.7205 21.1427C56.2605 21.1427 55.9805 20.7927 56.2605 20.4427V20.8627C56.2605 21.9827 55.6305 22.6127 54.6505 22.6127C53.6705 22.6127 53.3205 22.0527 53.1805 21.5627L52.0605 22.0527C52.4105 22.8227 53.2505 23.8027 54.7205 23.8027C56.1905 23.8027 57.5205 22.8927 57.5205 20.7227V15.4027H56.2605V15.8927ZM54.7205 20.0227C53.8105 20.0227 53.0405 19.2527 53.0405 18.2027C53.0405 17.1527 53.8105 16.3827 54.7205 16.3827C55.6305 16.3827 56.3305 17.1527 56.3305 18.2027C56.3305 19.2527 55.6305 20.0227 54.7205 20.0227ZM71.8006 12.2527H68.6505V21.0027H69.9805V17.7127H71.8006C73.2706 17.7127 74.6706 16.6627 74.6706 14.9827C74.6706 13.3027 73.2706 12.2527 71.8006 12.2527ZM71.8706 16.4527H69.9805V13.4427H71.8706C72.8506 13.4427 73.4106 14.2827 73.4106 14.9127C73.4106 15.5427 72.8506 16.3827 71.8706 16.3827V16.4527ZM79.9206 15.1927C78.9406 15.1927 77.9606 15.6127 77.6106 16.5227L78.8006 17.0127C79.0806 16.5227 79.5006 16.3827 79.9906 16.3827C80.4806 16.3827 81.3206 16.8027 81.3906 17.5027C81.1806 17.5027 80.6206 17.2227 80.0606 17.2227C78.8006 17.2227 77.5406 17.9227 77.5406 19.1827C77.5406 20.4427 78.5906 21.1427 79.7106 21.1427C80.8306 21.1427 81.0406 20.7227 81.3906 20.3027V21.0027H82.6506V17.6427C82.6506 16.1027 81.4606 15.1927 79.9906 15.1927H79.9206ZM79.7806 20.0227C79.3606 20.0227 78.7306 19.8127 78.7306 19.2527C78.7306 18.6927 79.5006 18.3427 80.1306 18.3427C80.7606 18.3427 80.9706 18.4827 81.3206 18.6227C81.2506 19.4627 80.5506 20.0227 79.7806 20.0227ZM87.1306 15.4027L85.6606 19.1827L84.1206 15.4027H82.7206L85.0306 20.7227L83.7006 23.6627H85.0306L88.6006 15.4027H87.1306ZM75.3706 21.0027H76.7006V12.2527H75.3706V21.0027Z" fill="white"/>
<path d="M15.0304 13.5781L7.61035 21.4881C7.82035 22.3281 8.59035 22.9581 9.57035 22.9581C10.5504 22.9581 10.2704 22.8881 10.6204 22.6781L19.0204 17.8481L15.1004 13.5781H15.0304Z" fill="#EA4335"/>
<path d="M22.5906 12.2484L18.9506 10.1484L14.8906 13.7884L18.9506 17.8484L22.5206 15.7484C23.1506 15.3984 23.5706 14.7684 23.5706 13.9984C23.5706 13.2284 23.1506 12.5984 22.5206 12.2484H22.5906Z" fill="#FBBC04"/>
<path d="M7.61035 6.51172C7.61035 6.65172 7.61035 6.86172 7.61035 7.00172V21.0017C7.61035 21.2117 7.61035 21.3517 7.61035 21.4917L15.3104 13.7917L7.61035 6.51172Z" fill="#4285F4"/>
<path d="M15.101 13.9991L18.951 10.1491L10.551 5.31906C10.271 5.10906 9.92102 5.03906 9.50102 5.03906C8.59102 5.03906 7.75102 5.66906 7.54102 6.50906L15.031 13.9991H15.101Z" fill="#34A853"/>
<path d="M30.9911 7.91092C30.7811 7.91092 30.6411 7.84092 30.5711 7.70092C30.5011 7.63092 30.4311 7.42092 30.4311 7.28092C30.4311 7.14092 30.4311 6.93094 30.5711 6.86094C30.7111 6.72094 30.8511 6.72094 31.0611 6.72094C31.2711 6.72094 31.4111 6.72094 31.5511 6.86094C31.6911 7.00094 31.6911 7.14092 31.6911 7.35092C31.6911 7.56092 31.6911 7.56092 31.6911 7.63092C31.6911 7.70092 31.6911 7.84092 31.5511 7.91092C31.5511 7.98092 31.4111 8.05092 31.3411 8.12092C31.3411 8.19092 31.2011 8.26092 31.1311 8.33092C31.0611 8.33092 30.9911 8.47092 30.8511 8.54092C30.7811 8.54092 30.6411 8.68092 30.5711 8.75092C30.5011 8.75092 30.4311 8.89092 30.3611 8.89092C30.2911 8.89092 30.2211 8.96092 30.2211 9.03092H29.6611V8.68092C29.6611 8.54092 29.6611 8.33092 29.6611 8.26092C29.6611 8.12092 29.6611 7.98092 29.6611 7.91092C29.6611 7.77092 29.6611 7.70092 29.6611 7.63092C29.6611 7.56092 29.6611 7.42092 29.6611 7.35092C29.6611 7.28092 29.6611 7.21092 29.6611 7.07092C29.6611 7.00094 29.6611 6.86094 29.6611 6.79094C29.6611 6.58094 29.6611 6.44094 29.8011 6.23094C29.8711 6.09094 30.0111 5.95094 30.1511 5.81094C30.2911 5.67094 30.5011 5.60094 30.6411 5.53094C30.8511 5.53094 31.0611 5.46094 31.3411 5.46094C31.6211 5.46094 31.9011 5.46094 32.1111 5.60094C32.3211 5.67094 32.4611 5.74094 32.6011 5.88094C32.7411 6.02094 32.8111 6.16094 32.8811 6.30094C32.8811 6.44094 32.9511 6.65094 32.9511 6.86094V9.03092H32.3911V6.86094C32.3911 6.72094 32.3911 6.58094 32.3911 6.44094C32.3911 6.30094 32.2511 6.23094 32.1811 6.09094C32.1111 5.95094 31.9711 5.95094 31.8311 5.88094C31.6911 5.88094 31.5511 5.81094 31.3411 5.81094C31.1311 5.81094 30.9911 5.81094 30.8511 5.81094C30.7111 5.81094 30.5711 5.88094 30.5011 6.02094C30.4311 6.09094 30.3611 6.16094 30.2911 6.30094C30.2911 6.44094 30.2211 6.51094 30.2211 6.65094C30.2211 6.79094 30.2211 6.93094 30.2211 7.07092C30.2211 7.21092 30.2211 7.35092 30.2911 7.49092C30.2911 7.63092 30.2911 7.77092 30.3611 7.98092C30.4311 8.19092 30.3611 8.33092 30.3611 8.54092C30.3611 8.54092 30.5011 8.47092 30.5711 8.40092C30.6411 8.40092 30.7111 8.26092 30.8511 8.19092C30.9211 8.19092 30.9911 8.05092 31.0611 7.98092C31.0611 7.98092 31.1311 7.84092 31.2011 7.77092L30.9911 7.91092ZM31.4111 7.28092C31.4111 7.21092 31.4111 7.14092 31.3411 7.07092C31.3411 7.07092 31.2011 7.00094 31.1311 7.00094C31.0611 7.00094 30.9911 7.00094 30.9211 7.07092C30.9211 7.07092 30.8511 7.21092 30.8511 7.28092C30.8511 7.35092 30.8511 7.42092 30.9211 7.49092C30.9211 7.49092 31.0611 7.56092 31.1311 7.56092C31.2011 7.56092 31.2711 7.56092 31.3411 7.49092C31.3411 7.49092 31.4111 7.35092 31.4111 7.28092Z" fill="white" stroke="white" stroke-width="0.14" stroke-miterlimit="10"/>
<path d="M35.5415 9.10092H34.9815V6.79094C34.9815 6.65094 34.9815 6.51094 34.9815 6.44094C34.9815 6.30094 34.9115 6.23094 34.8415 6.16094C34.8415 6.09094 34.7015 6.02094 34.6315 5.95094C34.5615 5.95094 34.4215 5.95094 34.2815 5.95094C34.1415 5.95094 33.9315 5.95094 33.7215 6.09094C33.5115 6.16094 33.3715 6.23094 33.2315 6.37094L33.0215 5.95094C33.2315 5.81094 33.3715 5.74094 33.5815 5.60094C33.7915 5.53094 34.0015 5.46094 34.2815 5.46094C34.5615 5.46094 34.7015 5.46094 34.8415 5.53094C34.9815 5.53094 35.1215 5.67094 35.2615 5.81094C35.4015 5.95094 35.4715 6.09094 35.5415 6.23094C35.5415 6.37094 35.6115 6.58094 35.6115 6.79094V9.10092H35.5415Z" fill="white" stroke="white" stroke-width="0.14" stroke-miterlimit="10"/>
<path d="M37.0816 8.53734C37.0816 8.32734 37.0816 8.18734 37.2216 8.11734C37.3616 7.97734 37.5016 7.97734 37.6416 7.97734C37.7816 7.97734 37.6416 7.97734 37.7116 7.97734V6.85734C37.7116 6.71734 37.7116 6.57734 37.7116 6.50734C37.7116 6.36734 37.6416 6.29734 37.5716 6.22734C37.5716 6.15734 37.4316 6.08734 37.3616 6.01734C37.2916 6.01734 37.1516 6.01734 37.0116 6.01734C36.8716 6.01734 36.6616 6.01734 36.4516 6.08734C36.2416 6.08734 36.1016 6.22734 35.9616 6.36734L35.6816 6.01734C35.8916 5.87734 36.0316 5.80734 36.2416 5.66734C36.4516 5.59734 36.6616 5.52734 36.9416 5.52734C37.2216 5.52734 37.3616 5.52734 37.5016 5.59734C37.6416 5.59734 37.7816 5.73734 37.9216 5.87734C38.0616 6.01734 38.1316 6.15734 38.2016 6.29734C38.2016 6.43734 38.2716 6.64734 38.2716 6.85734V8.60734C38.2716 8.81734 38.2716 8.95734 38.1316 9.02734C37.9916 9.16734 37.8516 9.16734 37.6416 9.16734C37.4316 9.16734 37.2916 9.16734 37.1516 9.02734C37.0116 8.88734 37.0116 8.74734 37.0116 8.60734L37.0816 8.53734ZM37.3616 8.53734C37.3616 8.60734 37.3616 8.67734 37.4316 8.74734C37.4316 8.74734 37.5716 8.81734 37.6416 8.81734C37.7116 8.81734 37.7816 8.81734 37.8516 8.74734C37.8516 8.74734 37.9216 8.60734 37.9216 8.53734C37.9216 8.46734 37.9216 8.39734 37.8516 8.32734C37.8516 8.32734 37.7116 8.25734 37.6416 8.25734C37.5716 8.25734 37.5016 8.25734 37.4316 8.32734C37.4316 8.32734 37.3616 8.46734 37.3616 8.53734Z" fill="white" stroke="white" stroke-width="0.14" stroke-miterlimit="10"/>
<path d="M41.7004 5.52734V7.83734C41.8404 7.83734 41.9804 7.83734 42.0504 7.90734C42.1204 7.90734 42.2604 7.97734 42.3304 8.04734C42.3304 8.04734 42.4704 8.18734 42.4704 8.25734C42.4704 8.32734 42.4704 8.39734 42.4704 8.53734C42.4704 8.74734 42.4704 8.88734 42.3304 8.95734C42.1904 9.09734 42.0504 9.09734 41.8404 9.09734C41.6304 9.09734 41.6304 9.09734 41.5604 9.09734C41.4904 9.09734 41.4204 9.02734 41.3504 8.95734C41.3504 8.95734 41.2804 8.81734 41.2104 8.74734C41.1404 8.67734 41.2104 8.53734 41.2104 8.39734V8.18734C41.0704 8.18734 41.0004 8.18734 40.8604 8.32734C40.7204 8.32734 40.6504 8.46734 40.5804 8.53734C40.5104 8.60734 40.3704 8.67734 40.3004 8.81734C40.2304 8.88734 40.1604 9.02734 40.0904 9.09734H39.5304V6.71734C39.5304 6.71734 39.5304 6.71734 39.4604 6.71734C39.2504 6.71734 39.1104 6.71734 39.0404 6.57734C38.9004 6.50734 38.9004 6.29734 38.9004 6.15734C38.9004 6.01734 38.9004 5.80734 39.0404 5.73734C39.1804 5.59734 39.3204 5.59734 39.5304 5.59734C39.7404 5.59734 39.8804 5.59734 40.0204 5.73734C40.1604 5.87734 40.1604 6.01734 40.1604 6.15734V8.53734C40.1604 8.46734 40.3004 8.39734 40.3704 8.32734C40.4404 8.32734 40.5804 8.18734 40.6504 8.11734C40.7204 8.11734 40.8604 8.04734 40.9304 7.97734C41.0704 7.97734 41.1404 7.97734 41.2804 7.90734V5.59734H41.8404L41.7004 5.52734ZM39.1104 6.08734C39.1104 6.15734 39.1104 6.22734 39.1804 6.29734C39.1804 6.29734 39.3204 6.36734 39.3904 6.36734C39.4604 6.36734 39.5304 6.36734 39.6004 6.29734C39.6004 6.29734 39.6704 6.15734 39.6704 6.08734C39.6704 6.01734 39.6704 5.94734 39.6004 5.87734C39.6004 5.87734 39.4604 5.80734 39.3904 5.80734C39.3204 5.80734 39.2504 5.80734 39.1804 5.87734C39.1804 5.87734 39.1104 6.01734 39.1104 6.08734ZM42.1904 8.53734C42.1904 8.46734 42.1904 8.32734 42.0504 8.25734C41.9804 8.25734 41.8404 8.11734 41.7004 8.11734V8.46734C41.7004 8.53734 41.7004 8.60734 41.7004 8.67734C41.7004 8.67734 41.7704 8.74734 41.8404 8.74734C41.9104 8.74734 41.9804 8.74734 41.9804 8.74734C41.9804 8.74734 41.9804 8.60734 41.9804 8.53734H42.1904Z" fill="white" stroke="white" stroke-width="0.14" stroke-miterlimit="10"/>
<path d="M41.1415 3.01063C41.1415 3.15063 41.1415 3.29063 41.0015 3.36063C40.9315 3.43063 40.7215 3.50063 40.5815 3.50063C40.4415 3.50063 40.2315 3.50063 40.1615 3.36063C40.0215 3.29063 40.0215 3.15063 40.0215 2.94063C40.0215 2.73063 40.0215 2.80063 40.0215 2.73063C40.0215 2.73063 40.0915 2.59063 40.1615 2.52063C40.2315 2.45063 40.3015 2.45063 40.4415 2.38063C40.5815 2.38063 40.7215 2.38063 40.8615 2.38063C41.0715 2.38063 41.2815 2.38062 41.4215 2.31062C41.5615 2.31062 41.7015 2.31063 41.7715 2.24063C41.8415 2.24063 41.9115 2.17062 41.9815 2.10062C41.9815 2.10062 41.9815 1.96063 41.9815 1.89062H42.4715C42.4715 2.03063 42.4715 2.10063 42.4015 2.17063C42.4015 2.24063 42.3315 2.31063 42.2615 2.38063C42.1915 2.38063 42.1215 2.45063 41.9815 2.52063C41.8415 2.52063 41.7015 2.52063 41.5615 2.59063C41.4915 2.59063 41.3515 2.59063 41.2815 2.59063H41.1415C41.1415 2.59063 41.0715 2.59063 41.0015 2.59063C41.0015 2.59063 41.0015 2.59063 41.0715 2.73063C41.0715 2.73063 41.0715 2.87063 41.0715 2.94063L41.1415 3.01063ZM40.3015 3.01063C40.3015 3.08063 40.3015 3.15062 40.3715 3.22062C40.3715 3.22062 40.5115 3.29063 40.5815 3.29063C40.6515 3.29063 40.7215 3.29062 40.7915 3.22062C40.7915 3.22062 40.8615 3.08063 40.8615 3.01063C40.8615 2.94063 40.8615 2.87063 40.7915 2.80063C40.7915 2.80063 40.6515 2.73063 40.5815 2.73063C40.5115 2.73063 40.4415 2.73063 40.3715 2.80063C40.3715 2.80063 40.3015 2.94063 40.3015 3.01063Z" fill="white" stroke="white" stroke-width="0.14" stroke-miterlimit="10"/>
<path d="M44.2206 4.76016C44.2206 4.48016 44.2206 4.34016 44.0106 4.20016C43.8706 4.06016 43.6606 3.99016 43.3806 3.99016H42.8906C42.8906 3.71016 42.8906 3.50016 42.8906 3.29016C42.8906 3.08016 43.0306 2.94016 43.1006 2.87016C43.1706 2.80016 43.3106 2.66016 43.4506 2.66016C43.5906 2.66016 43.8006 2.66016 44.0106 2.66016H45.5506V3.08016H43.9406C43.8706 3.08016 43.7306 3.08016 43.6606 3.08016C43.5906 3.08016 43.5206 3.08016 43.4506 3.15016C43.4506 3.15016 43.3106 3.22016 43.3106 3.29016C43.3106 3.29016 43.3106 3.43016 43.3106 3.50016C43.5206 3.50016 43.7306 3.50016 43.8706 3.50016C44.0106 3.50016 44.1506 3.64016 44.2906 3.71016C44.3606 3.78016 44.4306 3.92016 44.5006 4.06016C44.5006 4.20016 44.5006 4.41016 44.5006 4.62016V7.77014C44.5006 7.77014 44.5006 7.77014 44.5706 7.77014C44.7806 7.77014 44.9206 7.77014 44.9906 7.91014C45.1306 7.98014 45.1306 8.19014 45.1306 8.33014C45.1306 8.47014 45.1306 8.68014 44.9906 8.75014C44.8506 8.89014 44.7106 8.89014 44.5006 8.89014C44.2906 8.89014 44.1506 8.89014 44.0106 8.75014C43.8706 8.61014 43.8706 8.47014 43.8706 8.33014V4.55016L44.2206 4.76016ZM45.1306 8.54014C45.1306 8.47014 45.1306 8.40014 45.0606 8.33014C44.9906 8.26014 44.9206 8.26014 44.8506 8.26014C44.7806 8.26014 44.7106 8.26014 44.6406 8.33014C44.6406 8.33014 44.5706 8.47014 44.5706 8.54014C44.5706 8.61014 44.5706 8.68014 44.6406 8.75014C44.6406 8.75014 44.7806 8.82014 44.8506 8.82014C44.9206 8.82014 44.9906 8.82014 45.0606 8.75014C45.0606 8.75014 45.1306 8.61014 45.1306 8.54014Z" fill="white" stroke="white" stroke-width="0.14" stroke-miterlimit="10"/>
<path d="M49.0507 9.10092H48.4907V7.49092C48.4907 7.35092 48.4907 7.21092 48.4907 7.14092C48.4907 7.07092 48.4907 7.00094 48.4207 6.93094C48.2807 7.07092 48.1407 7.21092 48.0007 7.35092C47.8607 7.49092 47.7207 7.63092 47.5807 7.84092C47.4407 8.05092 47.3007 8.19092 47.2307 8.40092C47.0907 8.61092 47.0207 8.82092 46.9507 9.10092H46.3907V6.72094C46.3907 6.72094 46.3907 6.72094 46.3207 6.72094C46.1107 6.72094 45.9707 6.72094 45.9007 6.58094C45.7607 6.51094 45.7607 6.30094 45.7607 6.16094C45.7607 6.02094 45.7607 5.81094 45.9007 5.74094C46.0407 5.60094 46.1807 5.60094 46.3907 5.60094C46.6007 5.60094 46.7407 5.60094 46.8807 5.74094C47.0207 5.88094 47.0207 6.02094 47.0207 6.16094V8.19092C47.0207 8.05092 47.1607 7.91092 47.3007 7.77092C47.4407 7.63092 47.5107 7.49092 47.6507 7.35092C47.7907 7.21092 47.8607 7.14092 48.0007 7.00094C48.1407 6.86094 48.2107 6.79094 48.3507 6.72094C48.3507 6.72094 48.2807 6.65094 48.2107 6.58094C48.2107 6.58094 48.1407 6.51094 48.0707 6.44094C48.0707 6.44094 48.0707 6.30094 48.0007 6.30094C47.9307 6.30094 48.0007 6.16094 48.0007 6.09094C48.0007 6.02094 48.0007 5.88094 48.0007 5.81094C48.0007 5.74094 48.0707 5.67094 48.1407 5.60094C48.1407 5.60094 48.2807 5.53094 48.3507 5.46094C48.4207 5.46094 48.4907 5.46094 48.6307 5.46094C48.7707 5.46094 48.8407 5.46094 48.9107 5.46094C48.9807 5.46094 49.0507 5.46094 49.1207 5.60094C49.1207 5.60094 49.1907 5.74094 49.2607 5.81094C49.2607 5.88094 49.2607 5.95094 49.2607 6.09094C49.2607 6.23094 49.2607 6.30094 49.1907 6.44094C49.1907 6.51094 49.0507 6.65094 48.9807 6.72094C48.9807 6.72094 49.1207 6.86094 49.1207 6.93094C49.1207 6.93094 49.1907 7.07092 49.1907 7.14092C49.1907 7.21092 49.1907 7.28092 49.1907 7.35092C49.1907 7.42092 49.1907 7.49092 49.1907 7.63092V9.24092L49.0507 9.10092ZM45.9007 6.09094C45.9007 6.16094 45.9007 6.23094 45.9707 6.30094C45.9707 6.30094 46.1107 6.37094 46.1807 6.37094C46.2507 6.37094 46.3207 6.37094 46.3907 6.30094C46.3907 6.30094 46.4607 6.16094 46.4607 6.09094C46.4607 6.02094 46.4607 5.95094 46.3907 5.88094C46.3907 5.88094 46.2507 5.81094 46.1807 5.81094C46.1107 5.81094 46.0407 5.81094 45.9707 5.88094C45.9707 5.88094 45.9007 6.02094 45.9007 6.09094ZM48.6307 6.09094C48.6307 6.02094 48.6307 5.95094 48.6307 5.88094C48.6307 5.88094 48.5607 5.88094 48.4207 5.88094C48.2807 5.88094 48.2807 5.88094 48.2107 5.88094C48.2107 5.88094 48.2107 6.02094 48.2107 6.09094C48.2107 6.16094 48.2107 6.16094 48.2107 6.23094C48.2107 6.23094 48.2107 6.23094 48.2107 6.30094C48.2107 6.30094 48.2107 6.30094 48.2807 6.37094C48.2807 6.37094 48.2807 6.37094 48.3507 6.37094C48.3507 6.37094 48.4207 6.30094 48.4907 6.23094C48.4907 6.23094 48.4907 6.09094 48.4907 6.02094L48.6307 6.09094Z" fill="white" stroke="white" stroke-width="0.14" stroke-miterlimit="10"/>
<path d="M52.9016 9.10033H52.4116C52.3416 8.89033 52.2716 8.68033 52.1316 8.47033C51.9916 8.26033 51.9216 8.12033 51.7816 7.91033C51.6416 7.77033 51.5016 7.63033 51.3616 7.56033C51.2216 7.49033 51.0816 7.42033 50.9416 7.42033C50.8016 7.42033 50.8016 7.42033 50.7316 7.42033C50.6616 7.42033 50.5916 7.42033 50.5216 7.49033C50.5216 7.49033 50.4516 7.56033 50.3816 7.63033C50.3816 7.63033 50.3816 7.77033 50.3816 7.84033C50.3816 7.91033 50.3816 7.91033 50.3816 7.91033C50.3816 7.91033 50.3816 7.91033 50.4516 7.91033C50.6616 7.91033 50.8016 7.91033 50.8716 8.05033C51.0116 8.12033 51.0116 8.33033 51.0116 8.47033C51.0116 8.61033 51.0116 8.82033 50.8716 8.89033C50.7316 9.03033 50.5916 9.03033 50.3816 9.03033C50.1716 9.03033 50.0316 9.03033 49.8916 8.89033C49.7516 8.75033 49.7516 8.61033 49.7516 8.47033V7.77033C49.7516 7.63033 49.7516 7.49033 49.7516 7.42033C49.7516 7.28033 49.8216 7.21033 49.9616 7.14033C50.0316 7.07033 50.1716 7.00031 50.2416 6.93031C50.3816 6.93031 50.5216 6.93031 50.7316 6.93031C50.9416 6.93031 51.0816 6.93031 51.2916 7.07033C51.4316 7.14033 51.5716 7.21033 51.7116 7.35033C51.8516 7.49033 51.9216 7.63033 52.0616 7.77033C52.1316 7.91033 52.2016 8.05033 52.2716 8.19033V6.93031C52.2716 6.72031 52.2716 6.58031 52.2016 6.44031C52.2016 6.30031 52.0616 6.16031 51.9916 6.09031C51.9216 6.02031 51.7816 5.95031 51.6416 5.88031C51.5016 5.81031 51.3616 5.88031 51.2216 5.88031C50.9416 5.88031 50.7316 5.88031 50.5216 5.95031C50.3116 5.95031 50.1016 6.09031 49.9616 6.23031L49.6816 5.81031C49.8916 5.67031 50.1016 5.60031 50.3816 5.46031C50.6616 5.32031 50.9416 5.32031 51.2916 5.32031C51.6416 5.32031 51.7816 5.32031 51.9916 5.39031C52.2016 5.39031 52.3416 5.53031 52.4816 5.67031C52.6216 5.81031 52.6916 5.95031 52.7616 6.16031C52.8316 6.37031 52.9016 6.58031 52.9016 6.79031V8.96033V9.10033ZM50.7316 8.54033C50.7316 8.47033 50.7316 8.40033 50.6616 8.33033C50.6616 8.33033 50.5216 8.26033 50.4516 8.26033C50.3816 8.26033 50.3116 8.26033 50.2416 8.33033C50.2416 8.33033 50.1716 8.47033 50.1716 8.54033C50.1716 8.61033 50.1716 8.68033 50.2416 8.75033C50.2416 8.75033 50.3816 8.82033 50.4516 8.82033C50.5216 8.82033 50.5916 8.82033 50.6616 8.75033C50.6616 8.75033 50.7316 8.61033 50.7316 8.54033Z" fill="white" stroke="white" stroke-width="0.14" stroke-miterlimit="10"/>
<path d="M55.1405 7.91092C54.9305 7.91092 54.7905 7.84092 54.7205 7.70092C54.6505 7.63092 54.5805 7.42092 54.5805 7.28092C54.5805 7.14092 54.5805 6.93094 54.7205 6.86094C54.8605 6.72094 55.0005 6.72094 55.2105 6.72094C55.4205 6.72094 55.5605 6.72094 55.7005 6.86094C55.8405 7.00094 55.8405 7.14092 55.8405 7.35092C55.8405 7.56092 55.8405 7.56092 55.8405 7.63092C55.8405 7.70092 55.8405 7.84092 55.7005 7.91092C55.7005 7.98092 55.5605 8.05092 55.4905 8.12092C55.4905 8.19092 55.3505 8.26092 55.2805 8.33092C55.2105 8.33092 55.1405 8.47092 55.0005 8.54092C54.9305 8.54092 54.7905 8.68092 54.7205 8.75092C54.6505 8.75092 54.5805 8.89092 54.5105 8.89092C54.4405 8.89092 54.3705 8.96092 54.3705 9.03092H53.8105V8.68092C53.8105 8.54092 53.8105 8.33092 53.8105 8.26092C53.8105 8.12092 53.8105 7.98092 53.8105 7.91092C53.8105 7.77092 53.8105 7.70092 53.8105 7.63092C53.8105 7.56092 53.8105 7.42092 53.8105 7.35092C53.8105 7.28092 53.8105 7.21092 53.8105 7.07092C53.8105 7.00094 53.8105 6.86094 53.8105 6.79094C53.8105 6.58094 53.8105 6.44094 53.9505 6.23094C54.0205 6.09094 54.1605 5.95094 54.3005 5.81094C54.4405 5.67094 54.6505 5.60094 54.7905 5.53094C55.0005 5.53094 55.2105 5.46094 55.4905 5.46094C55.7705 5.46094 56.0505 5.46094 56.2605 5.60094C56.4705 5.67094 56.6105 5.74094 56.7505 5.88094C56.8905 6.02094 56.9605 6.16094 57.0305 6.30094C57.0305 6.44094 57.1005 6.65094 57.1005 6.86094V9.03092H56.5405V6.86094C56.5405 6.72094 56.5405 6.58094 56.5405 6.44094C56.5405 6.30094 56.4005 6.23094 56.3305 6.09094C56.2605 6.02094 56.1205 5.95094 55.9805 5.88094C55.8405 5.88094 55.7005 5.81094 55.4905 5.81094C55.2805 5.81094 55.1405 5.81094 55.0005 5.81094C54.8605 5.81094 54.7205 5.88094 54.6505 6.02094C54.5805 6.09094 54.5105 6.16094 54.4405 6.30094C54.4405 6.44094 54.3705 6.51094 54.3705 6.65094C54.3705 6.79094 54.3705 6.93094 54.3705 7.07092C54.3705 7.21092 54.3705 7.35092 54.4405 7.49092C54.4405 7.63092 54.4405 7.77092 54.5105 7.98092C54.5805 8.19092 54.5105 8.33092 54.5105 8.54092C54.5105 8.54092 54.6505 8.47092 54.7205 8.40092C54.7905 8.40092 54.8605 8.26092 55.0005 8.19092C55.0705 8.19092 55.1405 8.05092 55.2105 7.98092C55.2105 7.98092 55.2805 7.84092 55.3505 7.77092L55.1405 7.91092ZM55.4905 7.28092C55.4905 7.21092 55.4905 7.14092 55.4205 7.07092C55.4205 7.07092 55.2805 7.00094 55.2105 7.00094C55.1405 7.00094 55.0705 7.00094 55.0005 7.07092C55.0005 7.07092 54.9305 7.21092 54.9305 7.28092C54.9305 7.35092 54.9305 7.42092 55.0005 7.49092C55.0005 7.49092 55.1405 7.56092 55.2105 7.56092C55.2805 7.56092 55.3505 7.56092 55.4205 7.49092C55.4205 7.49092 55.4905 7.35092 55.4905 7.28092Z" fill="white" stroke="white" stroke-width="0.14" stroke-miterlimit="10"/>
<path d="M57.3813 3.78016L57.5913 3.36016C57.5913 3.22016 57.7313 3.08016 57.8013 3.01016C57.8013 2.94016 57.9413 2.80016 58.0113 2.80016C58.0113 2.80016 58.1513 2.66016 58.2213 2.66016C58.2913 2.66016 58.3613 2.66016 58.4313 2.66016C58.5713 2.66016 58.7113 2.66016 58.7813 2.87016C58.8513 3.08016 58.9213 3.15016 58.9213 3.43016V8.05013C58.9213 8.05013 58.9213 8.05013 58.9913 8.05013C59.2013 8.05013 59.3413 8.05013 59.4113 8.19013C59.5513 8.26013 59.5513 8.47013 59.5513 8.61013C59.5513 8.75013 59.5513 8.96014 59.4113 9.03014C59.2713 9.17014 59.1313 9.17014 58.9213 9.17014C58.7113 9.17014 58.5713 9.17014 58.4313 9.03014C58.2913 8.89014 58.2913 8.75013 58.2913 8.61013V3.36016C58.2913 3.22016 58.2913 3.15016 58.2913 3.15016C58.2913 3.15016 58.2913 3.15016 58.2213 3.15016C58.2213 3.15016 58.2213 3.15016 58.1513 3.29016C58.1513 3.29016 58.1513 3.43016 58.0813 3.50016L57.5213 4.62016H57.1013L56.8213 2.73016H57.3113L57.4513 3.92016L57.3813 3.78016ZM59.2713 8.54013C59.2713 8.47013 59.2713 8.40014 59.2013 8.33014C59.2013 8.33014 59.0613 8.26014 58.9913 8.26014C58.9213 8.26014 58.8513 8.26014 58.7813 8.33014C58.7813 8.33014 58.7113 8.47013 58.7113 8.54013C58.7113 8.61013 58.7113 8.68014 58.7813 8.75014C58.7813 8.75014 58.9213 8.82014 58.9913 8.82014C59.0613 8.82014 59.1313 8.82014 59.2013 8.75014C59.2013 8.75014 59.2713 8.61013 59.2713 8.54013Z" fill="white" stroke="white" stroke-width="0.14" stroke-miterlimit="10"/>
<path d="M61.4404 7.91092C61.2304 7.91092 61.0904 7.84092 61.0204 7.70092C60.9504 7.63092 60.8804 7.42092 60.8804 7.28092C60.8804 7.14092 60.8804 6.93094 61.0204 6.86094C61.1604 6.72094 61.3004 6.72094 61.5104 6.72094C61.7204 6.72094 61.8603 6.72094 62.0003 6.86094C62.1403 7.00094 62.1404 7.14092 62.1404 7.35092C62.1404 7.56092 62.1404 7.56092 62.1404 7.63092C62.1404 7.70092 62.1403 7.84092 62.0003 7.91092C62.0003 7.98092 61.8604 8.05092 61.7904 8.12092C61.7904 8.19092 61.6504 8.26092 61.5804 8.33092C61.5104 8.33092 61.4403 8.47092 61.3003 8.54092C61.2303 8.54092 61.0904 8.68092 61.0204 8.75092C60.9504 8.75092 60.8804 8.89092 60.8104 8.89092C60.7404 8.89092 60.6704 8.96092 60.6704 9.03092H60.1104V8.68092C60.1104 8.54092 60.1104 8.33092 60.1104 8.26092C60.1104 8.12092 60.1104 7.98092 60.1104 7.91092C60.1104 7.77092 60.1104 7.70092 60.1104 7.63092C60.1104 7.56092 60.1104 7.42092 60.1104 7.35092C60.1104 7.28092 60.1104 7.21092 60.1104 7.07092C60.1104 7.00094 60.1104 6.86094 60.1104 6.79094C60.1104 6.58094 60.1103 6.44094 60.2503 6.23094C60.3203 6.09094 60.4603 5.95094 60.6003 5.81094C60.7403 5.67094 60.9504 5.60094 61.0904 5.53094C61.3004 5.53094 61.5104 5.46094 61.7904 5.46094C62.0704 5.46094 62.3504 5.46094 62.5604 5.60094C62.7704 5.67094 62.9103 5.74094 63.0503 5.88094C63.1903 6.02094 63.2604 6.16094 63.3304 6.30094C63.3304 6.44094 63.4003 6.65094 63.4003 6.86094V9.03092H62.8404V6.86094C62.8404 6.72094 62.8404 6.58094 62.8404 6.44094C62.8404 6.30094 62.7004 6.23094 62.6304 6.09094C62.5604 6.02094 62.4204 5.95094 62.2804 5.88094C62.1404 5.88094 62.0004 5.81094 61.7904 5.81094C61.5804 5.81094 61.4403 5.81094 61.3003 5.81094C61.1603 5.81094 61.0203 5.88094 60.9503 6.02094C60.8803 6.09094 60.8104 6.16094 60.7404 6.30094C60.7404 6.44094 60.6704 6.51094 60.6704 6.65094C60.6704 6.79094 60.6704 6.93094 60.6704 7.07092C60.6704 7.21092 60.6704 7.35092 60.7404 7.49092C60.7404 7.63092 60.7404 7.77092 60.8104 7.98092C60.8104 8.12092 60.8104 8.33092 60.8104 8.54092C60.8104 8.54092 60.9504 8.47092 61.0204 8.40092C61.0904 8.40092 61.1603 8.26092 61.3003 8.19092C61.3703 8.19092 61.4404 8.05092 61.5104 7.98092C61.5104 7.98092 61.5803 7.84092 61.6503 7.77092L61.4404 7.91092ZM61.8604 7.28092C61.8604 7.21092 61.8604 7.14092 61.7904 7.07092C61.7904 7.07092 61.6504 7.00094 61.5804 7.00094C61.5104 7.00094 61.4404 7.00094 61.3704 7.07092C61.3704 7.07092 61.3003 7.21092 61.3003 7.28092C61.3003 7.35092 61.3004 7.42092 61.3704 7.49092C61.3704 7.49092 61.5104 7.56092 61.5804 7.56092C61.6504 7.56092 61.7204 7.56092 61.7904 7.49092C61.7904 7.49092 61.8604 7.35092 61.8604 7.28092Z" fill="white" stroke="white" stroke-width="0.14" stroke-miterlimit="10"/>
<path d="M62.9106 2.59156C62.9106 2.59156 62.9106 2.73156 62.9106 2.80156C62.9106 2.80156 62.9106 2.94156 62.8406 2.94156C62.8406 2.94156 62.8406 3.01156 62.7006 3.08156C62.7006 3.08156 62.7006 3.15156 62.6306 3.15156C62.8406 3.15156 62.9806 3.15156 63.1206 3.15156C63.2606 3.15156 63.3306 3.08156 63.4006 2.94156C63.4006 2.87156 63.5406 2.73156 63.5406 2.59156C63.5406 2.45156 63.5406 2.31156 63.5406 2.10156H64.0306C64.0306 2.31156 64.0306 2.52156 64.0306 2.73156C64.0306 2.87156 63.9606 3.08156 63.8206 3.15156C63.7506 3.29156 63.6106 3.36156 63.4006 3.43156C63.1906 3.43156 62.9806 3.50156 62.7006 3.50156H62.3506V3.22156C62.3506 3.22156 62.4206 3.22156 62.4906 3.15156C62.4906 3.15156 62.5606 3.08156 62.6306 3.01156C62.6306 3.01156 62.6306 2.94156 62.7006 2.87156C62.7006 2.87156 62.7006 2.80156 62.7006 2.73156C62.7006 2.73156 62.6306 2.73156 62.5606 2.80156C62.4906 2.87156 62.4906 2.80156 62.4206 2.80156C62.3506 2.80156 62.2806 2.80156 62.2106 2.73156C62.1406 2.66156 62.1406 2.59156 62.1406 2.45156C62.1406 2.31156 62.1406 2.24156 62.2106 2.17156C62.2106 2.17156 62.3506 2.10156 62.4906 2.10156C62.6306 2.10156 62.6306 2.10156 62.7006 2.10156C62.7706 2.10156 62.8406 2.10156 62.8406 2.24156C62.8406 2.24156 62.8406 2.31156 62.9106 2.38156C62.9106 2.38156 62.9106 2.52156 62.9106 2.59156ZM62.2806 2.45156V2.52156C62.2806 2.52156 62.2806 2.52156 62.3506 2.52156C62.4206 2.52156 62.3506 2.52156 62.4206 2.52156C62.4206 2.52156 62.4206 2.52156 62.4206 2.45156C62.4206 2.38156 62.4206 2.38156 62.4206 2.38156C62.4206 2.38156 62.4206 2.38156 62.3506 2.38156C62.2806 2.38156 62.2106 2.38156 62.2106 2.52156L62.2806 2.45156Z" fill="white" stroke="white" stroke-width="0.14" stroke-miterlimit="10"/>
<path d="M66.1306 9.16734C65.9906 9.16734 65.8506 9.16734 65.7806 9.16734C65.7106 9.16734 65.5706 9.16734 65.5006 9.02734C65.5006 9.02734 65.3606 8.88734 65.2906 8.81734C65.2906 8.74734 65.1506 8.60734 65.1506 8.46734L65.0106 8.04734C65.0106 8.04734 64.9406 8.04734 64.8706 8.04734H64.7306C64.5206 8.04734 64.3806 8.04734 64.2406 7.90734C64.1006 7.76734 64.1006 7.62734 64.1006 7.48734C64.1006 7.34734 64.1006 7.13734 64.2406 7.06734C64.3806 6.92734 64.5206 6.92734 64.7306 6.92734C64.9406 6.92734 64.9406 6.92734 65.0106 6.92734C65.0806 6.92734 65.1506 6.99734 65.2206 7.06734C65.2206 7.06734 65.2906 7.20734 65.3606 7.27734C65.3606 7.34734 65.4306 7.48734 65.5006 7.62734L65.7806 8.39734C65.7806 8.53734 65.9206 8.60734 65.9206 8.67734C65.9206 8.67734 66.0606 8.74734 66.1306 8.74734C66.2006 8.74734 66.2706 8.74734 66.3406 8.67734C66.3406 8.67734 66.4106 8.53734 66.4106 8.39734V6.92734C66.4106 6.78734 66.4106 6.64734 66.4106 6.57734C66.4106 6.43734 66.3406 6.36734 66.2006 6.29734C66.1306 6.22734 65.9906 6.15734 65.9206 6.08734C65.7806 6.08734 65.6406 6.08734 65.5006 6.08734C65.3606 6.08734 65.0806 6.08734 64.9406 6.15734C64.7306 6.15734 64.5206 6.29734 64.3806 6.43734L64.1006 6.01734C64.3106 5.87734 64.5206 5.80734 64.7306 5.66734C64.9406 5.59734 65.2206 5.52734 65.5006 5.52734C65.7806 5.52734 65.9206 5.52734 66.1306 5.59734C66.3406 5.59734 66.4806 5.73734 66.6206 5.87734C66.7606 6.01734 66.8306 6.15734 66.9006 6.29734C66.9006 6.43734 66.9706 6.64734 66.9706 6.85734V8.39734C66.9706 8.53734 66.9706 8.67734 66.9706 8.74734C66.9706 8.88734 66.9006 8.95734 66.8306 9.02734C66.8306 9.09734 66.6906 9.16734 66.5506 9.16734C66.4106 9.16734 66.3406 9.16734 66.1306 9.16734ZM64.3806 7.41734C64.3806 7.48734 64.3806 7.55734 64.4506 7.62734C64.4506 7.62734 64.5906 7.69734 64.6606 7.69734C64.7306 7.69734 64.8006 7.69734 64.8706 7.62734C64.8706 7.62734 64.9406 7.48734 64.9406 7.41734C64.9406 7.34734 64.9406 7.27734 64.8706 7.20734C64.8706 7.20734 64.7306 7.13734 64.6606 7.13734C64.5906 7.13734 64.5206 7.13734 64.4506 7.20734C64.4506 7.20734 64.3806 7.34734 64.3806 7.41734Z" fill="white" stroke="white" stroke-width="0.14" stroke-miterlimit="10"/>
<path d="M70.6812 9.10092H70.1211V6.79094C70.1211 6.65094 70.1211 6.51094 70.1211 6.44094C70.1211 6.30094 70.0511 6.23094 69.9811 6.16094C69.9811 6.09094 69.8411 6.02094 69.7711 5.95094C69.7011 5.95094 69.5611 5.95094 69.4211 5.95094C69.2811 5.95094 69.0711 5.95094 68.8611 6.09094C68.6511 6.16094 68.5111 6.23094 68.3711 6.37094L68.1611 5.95094C68.3711 5.81094 68.5111 5.74094 68.7211 5.60094C68.9311 5.53094 69.1411 5.46094 69.4211 5.46094C69.7011 5.46094 69.8411 5.46094 69.9811 5.53094C70.1211 5.53094 70.2612 5.67094 70.4012 5.81094C70.5412 5.95094 70.6112 6.09094 70.6812 6.23094C70.6812 6.37094 70.7512 6.58094 70.7512 6.79094V9.10092H70.6812Z" fill="white" stroke="white" stroke-width="0.14" stroke-miterlimit="10"/>
<path d="M71.5212 9.09734V7.83734C71.5212 7.69734 71.5212 7.62734 71.5212 7.55734C71.5212 7.48734 71.5212 7.41734 71.6612 7.34734C71.6612 7.34734 71.8012 7.20734 71.8712 7.20734C71.9412 7.20734 72.0812 7.13734 72.2212 7.06734C72.2212 7.06734 72.0812 6.99734 72.0112 6.92734C71.9412 6.92734 71.8712 6.92734 71.8012 6.85734C71.7312 6.85734 71.6612 6.85734 71.5912 6.85734H71.4512C71.4512 6.64734 71.4512 6.50734 71.5912 6.29734C71.5912 6.15734 71.7312 6.01734 71.8712 5.87734C72.0112 5.73734 72.1512 5.66734 72.3612 5.59734C72.5712 5.59734 72.7812 5.52734 73.0612 5.52734C73.3412 5.52734 73.6212 5.52734 73.8312 5.66734C74.0412 5.73734 74.1812 5.80734 74.3212 5.94734C74.4612 6.08734 74.5312 6.22734 74.6012 6.36734C74.6012 6.50734 74.6712 6.71734 74.6712 6.92734V9.09734H74.1112V6.92734C74.1112 6.78734 74.1112 6.64734 74.1112 6.50734C74.1112 6.36734 74.0412 6.29734 73.9712 6.15734C73.9012 6.08734 73.7612 6.01734 73.6912 5.94734C73.5512 5.94734 73.4112 5.87734 73.2012 5.87734C72.9912 5.87734 72.8512 5.87734 72.7812 5.87734C72.6412 5.87734 72.5712 5.94734 72.5012 6.01734C72.4312 6.01734 72.3612 6.15734 72.3612 6.22734C72.3612 6.29734 72.3612 6.36734 72.2912 6.43734C72.3612 6.43734 72.4312 6.43734 72.5712 6.43734C72.6412 6.43734 72.7112 6.43734 72.7812 6.50734C72.7812 6.50734 72.9212 6.57734 72.9912 6.64734C72.9912 6.64734 73.0612 6.71734 73.1312 6.78734V6.99734C72.9912 6.99734 72.9212 6.99734 72.8512 7.06734C72.7812 7.13734 72.7112 7.13734 72.6412 7.20734C72.6412 7.20734 72.5712 7.34734 72.5012 7.41734C72.5012 7.48734 72.5012 7.62734 72.5012 7.69734V8.95734H71.9412L71.5212 9.09734Z" fill="white" stroke="white" stroke-width="0.14" stroke-miterlimit="10"/>
</g>
</g>
<defs>
<clipPath id="clip0_175_16774">
<rect width="95.2" height="28" fill="white" transform="translate(0.200195)"/>
</clipPath>
</defs>
</svg>
